<?xml version="1.0" standalone="no"?><!DOCTYPE svg PUBLIC "-//W3C//DTD SVG 1.1//EN" "http://www.w3.org/Graphics/SVG/1.1/DTD/svg11.dtd"><svg t="1648620352859" class="icon" viewBox="0 0 1024 1024" version="1.1" xmlns="http://www.w3.org/2000/svg" p-id="3669" width="32" height="32" xmlns:xlink="http://www.w3.org/1999/xlink"><defs><style type="text/css">@font-face { font-family: feedback-iconfont; src: url("//at.alicdn.com/t/font_1031158_u69w8yhxdu.woff2?t=1630033759944") format("woff2"), url("//at.alicdn.com/t/font_1031158_u69w8yhxdu.woff?t=1630033759944") format("woff"), url("//at.alicdn.com/t/font_1031158_u69w8yhxdu.ttf?t=1630033759944") format("truetype"); }
</style></defs><path d="M795.927273 744.727273l-116.363637-116.363637c27.927273-41.890909 46.545455-93.090909 46.545455-146.618181 0-141.963636-116.363636-258.327273-258.327273-258.327273S209.454545 339.781818 209.454545 481.745455s116.363636 258.327273 258.327273 258.327272c62.836364 0 118.690909-23.272727 165.236364-60.509091l114.036363 114.036364c6.981818 6.981818 16.290909 9.309091 25.6 9.309091s18.618182-2.327273 25.6-9.309091c11.636364-13.963636 11.636364-34.909091-2.327272-48.872727zM281.6 481.745455c0-102.4 83.781818-188.509091 188.509091-188.509091s188.509091 83.781818 188.509091 188.509091c0 102.4-83.781818 188.509091-188.509091 188.50909s-188.509091-86.109091-188.509091-188.50909z" p-id="3670" fill="#2c2c2c"></path></svg>